<?xml version="1.0" encoding="UTF-8"?>
<svg id="Layer_2" data-name="Layer 2" xmlns="http://www.w3.org/2000/svg" viewBox="0 0 356.43 356.43">
  <defs>
    <style>
      .cls-1 {
        fill: #fff;
      }

      .cls-2 {
        fill: #231f20;
      }
    </style>
  </defs>
  <g id="Layer_1-2" data-name="Layer 1">
    <rect class="cls-2" width="356.43" height="356.43"/>
    <path class="cls-1" d="m19.3,262.61c.43-.72.6-1.52.73-2.34,2.6-16.98,11.73-29.24,26.78-37.32,8.34-4.48,17.2-7.2,26.55-8.54,8.73-1.26,17.5-2.15,26.28-2.94,2.14-.19,4.31-.3,6.48,0-.11.79-.74.77-1.18.95-12.89,5.35-24.3,12.81-33.56,23.39-3.52,4.02-6.79,8.17-8.84,13.15-2.56,6.24-3.86,12.65-1.42,19.21,3.59,9.67,10.23,16,20.57,18.05,4.21.84,8.44,1.16,12.7.46,2.92-.48,5.63-1.53,8.09-3.15,4.91-3.24,9.27-7.06,12.66-11.92,15.14-21.67,25.66-45.35,31.12-71.26,1.91-9.09,3.34-18.24,3.95-27.5.96-14.51-.94-28.6-5.99-42.31-5.04-13.69-12.72-25.64-22.48-36.41-6.55-7.23-13.83-13.65-21.06-20.15-.61-.55-1.2-1.13-1.77-1.72-.13-.14-.13-.39-.2-.6.73-.6,1.46-.25,2.16-.1,5.36,1.12,10.53,2.85,15.68,4.68,7.26,2.57,14.42,5.41,21.79,7.69,5.68,1.75,11.53,2.55,17.35,3.47,6.27.99,12.59,1.69,18.92,2.25,14.63,1.3,28.95-.11,42.9-4.94,8.93-3.09,17.68-6.51,25.78-11.46,3.92-2.4,7.48-5.24,10.75-8.43,6.54-6.37,13.52-12.25,20.17-18.49,3.76-3.53,7.54-7.05,11.46-10.4,13.57-11.61,28.84-19.99,46.38-23.94.22-.05.42-.16.63-.24.9,0,1.8,0,2.69,0-.63.81-1.59,1.1-2.44,1.54-7.31,3.81-13.66,8.85-19.23,14.9-2.58,2.81-5.2,5.58-7.86,8.32-2.97,3.07-5.75,6.29-8.3,9.72-5.09,6.84-10.37,13.54-14.88,20.8-6.42,10.33-11.16,21.34-13.3,33.34-2.44,13.69-.12,26.53,7.61,38.18,6.33,9.55,13.45,18.52,21.1,27.05,2.54,2.83,5.49,5.29,8.33,7.84,2.78,2.51,5.47,5.1,8.11,7.75.21.21.43.42.61.66.35.45.98.88.59,1.54-.3.51-.94.38-1.44.37-6.81-.02-13.61.06-20.42-.32-3.96-.22-7.92.22-11.87.5-2.83.2-5.62.77-8.4,1.38-9.1,2-17.02,6.42-24.48,11.81-11.29,8.15-20.38,18.27-26.76,30.65-5.24,10.18-8.64,20.99-9.97,32.42-.57,4.94-.64,9.85.34,14.74,2.15,10.66,8.38,18.32,17.6,23.75,5.56,3.27,11.64,5.06,17.98,5.97,3.85.55,7.72.88,11.61.92,11.05.12,20.62-3.59,28.99-10.73,10.95-9.35,18.75-20.85,23.84-34.24,1.86-4.89,3.62-9.82,4.66-14.98.1-.51.26-1,.67-1.45.87.38.69,1.13.67,1.72-.13,3.66-.18,7.33-.48,10.98-.64,7.68-1.65,15.31-3.44,22.82-2.53,10.62-6.19,20.77-12.57,29.78-3.66,5.16-7.93,9.71-12.88,13.66-5.81,4.63-11.74,9.01-18.59,12.04-5.32,2.36-10.85,3.79-16.63,4.33-1.84.17-3.76.16-5.42,1.19h-10.33c-.94-.51-1.97-.66-3.01-.8-8.64-1.2-16.72-4.01-24.12-8.63-4.19-2.63-7.7-6.16-11.57-9.23-5.88-4.66-9.93-10.73-12.96-17.49-1.93-4.31-3.21-8.85-4.13-13.49-2.17-10.92-2.67-21.93-1.89-33.03.52-7.48,1.56-14.86,3.23-22.16,2.21-9.63,5.82-18.67,11.17-27.02,3.4-5.3,7.18-10.3,11.01-15.29,2.02-2.62,4.29-5,6.8-7.14,9.57-8.2,20.08-14.83,32.02-19.06,2.96-1.05,5.95-2.03,8.9-3.09,1.27-.45,1.31-.68.41-1.67-1.92-2.1-3.68-4.33-5.37-6.61-4.97-6.69-7.57-14.2-7.78-22.53-.26-10.04.95-19.85,4.69-29.25.17-.44.61-.91.12-1.46-1.01,0-1.85.54-2.72.93-4.02,1.82-8.04,3.64-12.19,5.15-8.71,3.17-17.62,5.08-26.97,5.01-8.41-.07-16.69-1.24-25.01-2.14-1.24-.13-2.47-.37-3.76-.1.05.96.69,1.43,1.11,2.01,1.97,2.75,3.61,5.67,4.84,8.83,2.75,7.05,3.98,14.4,4.28,21.91.51,12.55-1.11,24.92-3.52,37.2-6.92,35.25-20.3,67.81-40.78,97.38-5.85,8.44-12.37,16.33-20.06,23.2-9.03,8.05-19.07,14.45-30.46,18.59-8.6,3.12-17.43,4.66-26.65,3.6-12.16-1.4-22.15-7.06-30.56-15.59-7.23-7.34-11.65-16.2-12.99-26.53-.25-1.9-.16-3.91-1.17-5.67v-13.91Z"/>
  </g>
</svg>