<?xml version="1.0" encoding="utf-8"?>
<!-- Generator: Adobe Illustrator 27.5.0, SVG Export Plug-In . SVG Version: 6.00 Build 0)  -->
<svg version="1.1" id="Layer_1" xmlns="http://www.w3.org/2000/svg" xmlns:xlink="http://www.w3.org/1999/xlink" x="0px" y="0px"
	 viewBox="0 0 1140.2 351.6" style="enable-background:new 0 0 1140.2 351.6;" xml:space="preserve">
<path d="M0,268.1c0.5-0.8,0.6-1.6,0.8-2.5c2.8-18.1,12.5-31.2,28.6-39.9c8.9-4.8,18.4-7.7,28.4-9.1c9.3-1.4,18.7-2.3,28.1-3.1
	c2.3-0.2,4.6-0.3,6.9,0c-0.1,0.9-0.8,0.8-1.3,1c-13.8,5.7-26,13.7-35.9,25c-3.8,4.3-7.3,8.7-9.5,14.1c-2.7,6.7-4.1,13.5-1.5,20.5
	c3.8,10.3,10.9,17.1,22,19.3c4.5,0.9,9,1.2,13.6,0.5c3.1-0.5,6-1.6,8.7-3.4c5.2-3.5,9.9-7.5,13.5-12.8
	c16.2-23.2,27.4-48.5,33.3-76.2c2.1-9.7,3.6-19.5,4.2-29.4c1-15.5-1-30.6-6.4-45.2c-5.4-14.6-13.6-27.4-24-38.9
	c-7-7.7-14.8-14.6-22.5-21.5c-0.7-0.6-1.3-1.2-1.9-1.8c-0.1-0.2-0.1-0.4-0.2-0.6c0.8-0.6,1.6-0.3,2.3-0.1c5.7,1.2,11.3,3.1,16.8,5
	c7.8,2.8,15.4,5.8,23.3,8.2c6.1,1.9,12.3,2.7,18.6,3.7c6.7,1.1,13.5,1.8,20.2,2.4c15.6,1.4,30.9-0.1,45.9-5.3
	c9.5-3.3,18.9-7,27.6-12.2c4.2-2.6,8-5.6,11.5-9c7-6.8,14.5-13.1,21.6-19.8c4-3.8,8.1-7.5,12.2-11.1c14.5-12.4,30.8-21.4,49.6-25.6
	c0.2,0,0.5-0.2,0.7-0.3c1,0,1.9,0,2.9,0c-0.7,0.9-1.7,1.2-2.6,1.6c-7.8,4.1-14.6,9.5-20.5,15.9c-2.8,3-5.6,6-8.4,8.9
	c-3.2,3.3-6.1,6.7-8.9,10.4c-5.4,7.3-11.1,14.5-15.9,22.2c-6.9,11-11.9,22.8-14.2,35.6c-2.6,14.6-0.1,28.4,8.1,40.8
	c6.8,10.2,14.4,19.8,22.6,28.9c2.7,3,5.9,5.6,8.9,8.4c3,2.7,5.9,5.4,8.7,8.3c0.2,0.2,0.5,0.4,0.6,0.7c0.4,0.5,1,0.9,0.6,1.6
	c-0.3,0.5-1,0.4-1.5,0.4c-7.3,0-14.5,0.1-21.8-0.4c-4.2-0.2-8.5,0.2-12.7,0.5c-3,0.2-6,0.8-9,1.5c-9.7,2.1-18.2,6.9-26.2,12.6
	c-12.1,8.7-21.8,19.5-28.6,32.8c-5.6,10.9-9.2,22.4-10.7,34.6c-0.6,5.3-0.7,10.5,0.4,15.8c2.3,11.4,9,19.6,18.8,25.4
	c5.9,3.5,12.4,5.4,19.2,6.4c4.1,0.6,8.2,0.9,12.4,1c11.8,0.1,22-3.8,31-11.5c11.7-10,20-22.3,25.5-36.6c2-5.2,3.9-10.5,5-16
	c0.1-0.5,0.3-1.1,0.7-1.6c0.9,0.4,0.7,1.2,0.7,1.8c-0.1,3.9-0.2,7.8-0.5,11.7c-0.7,8.2-1.8,16.4-3.7,24.4
	c-2.7,11.4-6.6,22.2-13.4,31.8c-3.9,5.5-8.5,10.4-13.8,14.6c-6.2,5-12.5,9.6-19.9,12.9c-5.7,2.5-11.6,4-17.8,4.6
	c-2,0.2-4,0.2-5.8,1.3h-11c-1-0.5-2.1-0.7-3.2-0.9c-9.2-1.3-17.9-4.3-25.8-9.2c-4.5-2.8-8.2-6.6-12.4-9.9
	c-6.3-5-10.6-11.5-13.9-18.7c-2.1-4.6-3.4-9.5-4.4-14.4c-2.3-11.7-2.9-23.4-2-35.3c0.6-8,1.7-15.9,3.5-23.7
	c2.4-10.3,6.2-20,11.9-28.9c3.6-5.7,7.7-11,11.8-16.3c2.2-2.8,4.6-5.3,7.3-7.6c10.2-8.8,21.5-15.9,34.2-20.4
	c3.2-1.1,6.4-2.2,9.5-3.3c1.4-0.5,1.4-0.7,0.4-1.8c-2.1-2.2-3.9-4.6-5.7-7.1C240,147,237.2,139,237,130c-0.3-10.7,1-21.2,5-31.3
	c0.2-0.5,0.6-1,0.1-1.6c-1.1,0-2,0.6-2.9,1c-4.3,1.9-8.6,3.9-13,5.5c-9.3,3.4-18.8,5.4-28.8,5.3c-9-0.1-17.8-1.3-26.7-2.3
	c-1.3-0.1-2.6-0.4-4-0.1c0.1,1,0.7,1.5,1.2,2.2c2.1,2.9,3.9,6.1,5.2,9.4c2.9,7.5,4.2,15.4,4.6,23.4c0.5,13.4-1.2,26.6-3.8,39.8
	c-7.4,37.7-21.7,72.5-43.6,104.1c-6.2,9-13.2,17.5-21.4,24.8c-9.7,8.6-20.4,15.5-32.6,19.9c-9.2,3.3-18.6,5-28.5,3.9
	c-13-1.5-23.7-7.5-32.7-16.7C7.3,309.5,2.6,300.1,1.2,289c-0.3-2-0.2-4.2-1.2-6.1L0,268.1L0,268.1z"/>
<path d="M1140.2,311.3c-1.3,6.2-2.4,12.4-3.2,18.6c-0.1,0.4-0.1,0.8-0.2,1.2c-0.4,2-1.2,2.7-3.3,2.8c-2.2,0.2-4.3-0.2-6.4-0.5
	c-4.4-0.7-8.9-1-13.4-1.2c-12.8-0.7-25.6-0.8-38.4-0.5c-6.8,0.2-13.6,0.1-20.4,0.4c-5,0.2-10.1,0.4-15.1,0.4c-0.8,0-1.6,0-2.4-0.1
	c-2-0.3-3-1.3-3-3.4c0-6.1-0.1-12.1,0.3-18.2c0.3-3.7,0.3-7.5,0.5-11.2c0.5-7.8,0.7-15.6,1.2-23.5c0.5-6.9,0.6-13.7,0.6-20.6
	c0-8.1,0-16.1-0.5-24.2c-0.1-0.7-0.1-1.4-0.1-2.1c-0.4-11-0.7-22-1.1-33.1c-0.2-5.2-0.6-10.4-0.9-15.6c-0.2-3.1,0.8-4.1,3.8-4.1
	c3.7-0.1,7.3,0.3,11,0.3c15.9,0.2,31.8,1,47.7,0.5c10-0.3,20-0.6,30-0.9c1.4,0,2.7,0.1,4.1,0.3c1.9,0.4,3.1,1.4,3.5,3.4
	c0.9,5.4,1.7,10.7,2.3,16.1c0.1,0.5,0.1,1,0,1.4c-0.1,2-0.7,2.7-2.7,3c-0.5,0.1-1,0.1-1.4,0.1c-8.6-0.3-17.3-0.4-25.9-0.9
	c-10.3-0.6-20.6-1-30.9-0.9c-2.4,0-4.8,0-7.2,0.6c-2.3,0.6-3.8,1.9-4.4,4.2c-0.6,2.2-0.9,4.4-0.9,6.6c0,8.1,0,16.1,0,24.2
	c0,0.9,0,1.8,0.3,2.6c0.5,1.8,1.7,2.8,3.5,3.2c0.6,0.1,1.3,0.1,1.9,0.1c8.1-0.3,16.2,0.2,24.2-0.3c3.3-0.2,6.7-0.1,10.1-0.2
	c7.8,0,15.5-0.6,23.2-1.1c1.4-0.1,2.9-0.4,4.3-0.4c2.6-0.1,3.5,0.9,3.3,3.5c-0.2,3-0.5,6.1-0.9,9.1c-0.4,3.3-0.7,6.7-0.8,10
	c-0.1,3-0.9,3.9-3.9,3.7c-3.9-0.2-7.8-0.5-11.7-0.8c-1.1-0.1-2.2-0.2-3.3-0.3c-14.3-0.3-28.6-0.3-42.9,0c-1.1,0-2.2,0.1-3.3,0.3
	c-2.7,0.7-3.9,2.1-3.9,4.9c0,4.2,0.1,8.3,0.1,12.5c0,4.6,0,9.1,0,13.7c0.1,3,0.4,6,1.3,9c0.8,2.5,2.3,3.9,4.9,4.4
	c3.1,0.6,6.2,0.9,9.3,0.9c4.8,0.1,9.6,0.2,14.4,0c6.6-0.3,13.2-0.6,19.8-1.2c5.2-0.5,10.3-0.8,15.5-1.1c2.7-0.2,5.4-0.6,8.1-0.6
	c1.6,0,2.8,0.4,3.2,2.1L1140.2,311.3L1140.2,311.3z"/>
<path d="M803,176.4c14-0.1,28.8,0.4,43.7,0.5c8.4,0,16.7,1.6,24.6,4.8c7.3,3,13.7,7.3,18.2,14c4,5.9,5.8,12.4,6.2,19.4
	c0.7,11.1-3.8,20.2-11,28.2c-1.3,1.4-2.9,2.6-4.5,3.6c-0.5,0.4-1.1,0.7-1.6,1.1c-1.4,1.2-1.4,1.7,0.1,2.7c0.3,0.2,0.7,0.4,1,0.6
	c11.7,6.8,18.3,17,19.2,30.5c1,15.9-4.2,29.6-16.1,40.4c-6.8,6.2-14.9,9.5-24.1,9.8c-10.5,0.4-21.1,0-31.7-0.2
	c-6.7-0.2-13.4-0.4-20.1-0.2c-7,0.1-14,0.6-21.1,0.8c-1.2,0-2.4,0.1-3.6,0c-2.4-0.1-3.4-1-3.5-3.4c0-3.7,0-7.4,0.2-11
	c0.1-1.9,0.2-3.8,0.3-5.7c0.4-10.4,1-20.8,1.3-31.1c0.4-12.2,0.9-24.4,0.5-36.7c-0.3-8.5-0.5-17.1-1-25.6
	c-0.6-12.1-1.1-24.3-1.3-36.4c0-1,0-1.9,0-2.9c0.1-2,0.9-2.9,2.9-3.1c0.8-0.1,1.6-0.1,2.4-0.1C790.1,176.4,796.1,176.4,803,176.4
	L803,176.4z M807.3,281.4c-0.3,7.1,0.5,15.7,0.5,24.2c0,2.1,0.3,2.3,2.3,2.7c2.5,0.5,5.1,0.8,7.6,0.9c9.8,0.1,19.5,0.6,29.2-0.4
	c3.8-0.4,7.6-1.1,11.1-2.7c4.8-2.1,8.2-5.6,10.2-10.6c2.1-5.4,2.3-11,1.6-16.5c-0.6-5.2-3.3-9.3-7.9-11.9c-2-1.1-4-2-6.2-2.6
	c-4.4-1.2-8.9-1.8-13.5-1.9c-7.8-0.2-15.7-0.1-23.5,0.1c-3,0.1-5.9,0.4-8.8,1c-2.3,0.5-2.6,0.9-2.6,3.2
	C807.3,271.2,807.3,275.6,807.3,281.4L807.3,281.4z M826.1,196.8c-2.2,0-4.5-0.1-6.7,0c-3,0.1-6.1,0.3-9,1c-2.1,0.5-2.6,1-2.6,3.1
	c0,4.1-0.3,8.3-0.4,12.4c-0.2,6.5-0.1,13.1,0,19.6c0,0.9,0.1,1.8,0.2,2.6c0,1.7,1,2.6,2.6,2.9c1.2,0.2,2.5,0.4,3.8,0.7
	c3.4,0.6,6.8,0.4,10.3,0.7c8.2,0.6,16.4,0.2,24.6-1.2c4.7-0.9,9.3-2.4,13.1-5.5c3-2.5,4.8-5.7,5.3-9.6c0.3-2.4,0.3-4.8-0.1-7.2
	c-0.7-5.1-2.9-9.4-7-12.7c-3.3-2.6-7-4.1-11.1-4.9C841.4,197.1,833.8,196.7,826.1,196.8L826.1,196.8z"/>
<path d="M760.7,332.5c-3.6-0.1-7.2-0.5-10.8-0.5c-3.5,0-6.9,0.4-10.3,0.6c-2.3,0.1-3.8-0.8-4.8-2.8c-1.2-2.2-2.1-4.5-2.8-6.9
	c-1.1-3.4-2.1-6.9-3.2-10.3c-1-3.2-2.2-6.4-3.7-9.3c-1.7-3.2-3.9-4.8-7.8-4.8c-17.6,0.1-35.2,0.1-52.8,0c-3.5,0-5.5,1.4-6.9,4.4
	c-2.3,4.6-3.8,9.5-5.3,14.4c-1,3.5-2.1,6.9-3.5,10.2c-0.3,0.7-0.6,1.3-0.9,2c-1,2.3-2.6,3.3-5.2,3.2c-7-0.2-13.9-0.1-20.9-0.1
	c-0.6,0-1.1,0-1.7,0c-2-0.2-2.7-1-2.3-3c0.3-1.4,0.7-2.8,1.2-4.1c10.3-27.3,20.5-54.6,31-81.8c5.7-14.8,11.9-29.3,18-43.9
	c2.9-6.9,5.8-13.9,8.4-20.9c0.3-0.8,0.6-1.6,1-2.4c0.7-1.6,1.9-2.5,3.8-2.3c2.3,0.2,4.6,0.3,6.9,0.6c3.6,0.6,7.2,0.2,10.7-0.3
	c1.1-0.1,2.2-0.2,3.3-0.5c1.9-0.5,3.2,0.2,4.1,1.9c1,1.8,1.8,3.8,2.5,5.7c7.7,19.5,15,39.1,22.4,58.7c8,21,16,42,24,63
	c3.2,8.5,6.4,17,9.6,25.6c1.2,3.4,0.9,3.9-2.8,3.9C761.7,332.5,761.2,332.5,760.7,332.5L760.7,332.5z M691.5,209.7
	c-0.8,0.8-1,1.5-1.2,2.2c-5,12.8-10,25.6-14.9,38.4c-2.2,5.8-4.5,11.6-6.3,17.6c-0.8,2.6-0.2,3.8,2.4,4.8c2,0.7,4,1.1,6.1,1.1
	c8.8,0,17.6,0,26.4,0c2.5,0,5-0.4,7.3-1.2c2.6-0.9,3.1-1.9,2.1-4.5c-5.6-15-11.2-30.1-16.8-45.1
	C694.9,218.5,693.3,214.2,691.5,209.7L691.5,209.7z"/>
<path d="M364.7,221.9c0,4.4,0,8.8,0,13.2c0,4.1,1.5,5.6,5.7,5.6c11.4-0.1,22.7-0.4,34-0.5c7.8-0.1,15.6-0.6,23.5-1.1
	c1.5-0.1,3-0.5,4.5-0.4c2,0.1,2.7,0.7,2.9,2.7c0.2,2.5-0.2,4.9-0.5,7.4c-0.5,4.2-0.9,8.4-1,12.6c-0.1,2.8-0.9,3.5-3.7,3.5
	c-4.2,0-8.3-0.5-12.4-0.8c-1-0.1-2.1-0.2-3.1-0.2c-14.1-0.2-28.3-0.3-42.5,0c-1.3,0-2.5,0.1-3.8,0.4c-2.5,0.6-3.9,2.2-3.9,4.8
	c0,2.5,0.3,5,0.3,7.4c0,6.3,0,12.6,0,18.9c0,2.7,0.3,5.4,1,8.1c0.8,3,2.5,4.9,5.7,5.4c2.9,0.4,5.7,0.8,8.6,0.8
	c4.9,0.1,9.8,0.2,14.6,0c6.5-0.3,13.1-0.8,19.6-1.2c5.2-0.4,10.4-0.8,15.5-1.1c2.8-0.2,5.6-0.6,8.4-0.5c2.6,0.1,3.4,1,3.2,3.6
	c-0.1,1.1-0.1,2.2-0.5,3.3c-1.4,5.2-2,10.5-2.8,15.8c-0.6,4.1-1.3,4.7-5.5,4.4c-3.1-0.2-6.2-0.7-9.3-1c-2.9-0.3-5.7-0.6-8.6-0.8
	c-12.8-0.7-25.6-0.8-38.4-0.4c-6.8,0.2-13.6,0.1-20.4,0.5c-5,0.2-9.9,0.3-14.9,0.4c-0.7,0-1.4,0-2.2,0c-2.4-0.2-3.5-1.2-3.6-3.6
	c0-3.8,0.1-7.5,0.2-11.3c0-1,0.2-2.1,0.2-3.1c0.2-9.2,0.8-18.4,1.4-27.5c0.2-3.4,0.3-6.7,0.5-10c0.6-11.5,0.8-23,0.5-34.5
	c-0.3-9.3-0.5-18.7-1-28c-0.4-7.7-0.7-15.3-0.9-23c-0.1-3.7-0.4-7.3-0.7-11c-0.2-2.5,0.7-3.8,3.3-3.9c3-0.1,6.1-0.1,9.1,0.1
	c0.7,0.1,1.4,0.1,2.1,0.2c16.2,0.1,32.5,1,48.7,0.5c9.8-0.4,19.6-0.4,29.5-0.8c1.4-0.1,2.7,0,4,0.4c1.8,0.4,3,1.5,3.3,3.4
	c1,5.8,2,11.5,2.3,17.3c0.1,2.3-0.7,3.2-3,3.4c-2,0.1-4-0.2-6-0.2c-10.2,0.1-20.3-0.7-30.4-1.2c-8.3-0.4-16.6-0.6-24.9-0.3
	c-6.2,0.2-8.2,2.2-8.7,8.4c0,0.5-0.1,1-0.1,1.4C364.8,213.3,364.8,217.6,364.7,221.9C364.8,222,364.8,222,364.7,221.9L364.7,221.9z"
	/>
<path d="M498.9,309.2c9.5-0.3,19-0.2,28.5-0.5c7.7-0.2,15.3-0.6,23-1.4c2.4-0.2,4.7-0.8,7.1-1.1c0.9-0.1,1.8-0.2,2.6-0.2
	c2.1,0,2.9,0.7,2.9,2.9c0,3.5,0,7-0.2,10.5c-0.2,3.3-0.4,6.7-1.2,10c-0.9,3.5-2.1,4.6-5.7,4.5c-8.1-0.4-16.3-0.6-24.4-1.1
	c-8.5-0.5-17.1-0.9-25.6-0.8c-6.2,0.1-12.5-0.1-18.7,0.3c-7.7,0.4-15.4,0.3-23,0.4c-0.6,0-1.1,0-1.7,0c-2.6-0.1-3.7-1-3.7-3.7
	c0-5.4-0.2-10.9,0.2-16.3c0.1-1.1,0.1-2.2,0.1-3.4c-0.1-12.4,0.9-24.8,1.1-37.1c0-4.1,0.3-8.3,0.3-12.5c0-8.6-0.2-17.2-0.6-25.9
	c-0.2-4.2-0.2-8.5-0.5-12.7c-0.4-4.8-0.4-9.6-0.6-14.4c-0.3-8.5-0.7-16.9-0.6-25.4c0-4,0.5-4.4,4.4-4.4c2.3,0,4.6,0.1,6.9,0.4
	c3,0.3,6.1,0.3,9.1-0.1c2.5-0.4,5-0.3,7.4-0.2c2.1,0.1,2.9,0.9,3,3c0.1,2,0.1,4,0,6c-0.3,3.7-0.2,7.4-0.3,11
	c-0.3,11.2-0.8,22.4-1.1,33.5c-0.2,6.9-0.4,13.7-0.4,20.6c0,15.8,0,31.6,0.1,47.5c0,2.7,0.3,5.4,0.6,8.1c0.3,2.5,0.6,2.6,3,2.6
	C493.6,309.3,496.2,309.2,498.9,309.2L498.9,309.2z"/>
<path d="M932.7,332.5c-3.5,0-7,0-10.6,0c-2.9,0-3.8-1-4-3.9c-0.2-2.7,0.2-5.4,0.2-8.1c0.1-5.5,0-11,0.2-16.5
	c0.3-11.3,0.9-22.5,1.2-33.8c0.2-8.9,0.4-17.7-0.2-26.6c-0.1-0.9,0-1.8-0.1-2.6c-0.4-10.9-0.7-21.7-1.2-32.6
	c-0.4-8.9-0.8-17.7-0.8-26.6c0-0.7,0-1.4,0-2.2c0.2-1.8,0.9-2.6,2.7-2.7c2.5-0.1,5-0.1,7.4,0.2c3.5,0.4,7,0.5,10.5,0
	c2.4-0.3,4.8-0.2,7.2-0.2c2.1,0.1,3,0.8,3,2.9c0,5,0.1,10.1-0.2,15.1c0,0.7-0.1,1.4-0.2,2.1c-0.2,7.7-0.3,15.3-0.7,23
	c-1.2,24.8-0.8,49.7-0.8,74.6c0,4.1,0.2,8.1,0.8,12.2c0.4,2.3,0.5,2.4,3,2.4c10.6,0.2,21.3-0.4,31.9-0.5c9.3-0.1,18.5-0.7,27.8-1.5
	c2.2-0.2,4.4-0.7,6.6-1.1c1.1-0.2,2.2-0.3,3.3-0.3c1.7,0.1,2.4,0.7,2.4,2.4c0,4.7,0.2,9.4-0.3,14.1c-0.2,2.3-0.4,4.6-1,6.9
	c-0.8,3.5-1.9,4.6-5.4,4.4c-4.7-0.2-9.5,0-14.1-0.4c-3.6-0.3-7.2-0.4-10.8-0.7c-14.8-0.9-29.6-0.9-44.4-0.5
	C941.8,332.3,937.2,332.4,932.7,332.5L932.7,332.5z"/>
<path d="M606.6,185.5c-0.3,10.9-0.6,22.2-1,33.6c-0.2,3.6-0.2,7.2-0.3,10.8c-0.6,12.4-0.7,24.8-0.4,37.2c0.2,10.9,0.6,21.7,1,32.6
	c0.2,4.3,0.3,8.6,0.4,12.9c0.1,4.9,0.5,9.7,0.4,14.6c0,0.6,0,1.3,0,1.9c-0.1,2.4-1,3.4-3.3,3.5c-1.8,0.1-3.7,0.1-5.5-0.1
	c-4.8-0.6-9.6-0.5-14.3,0c-1.5,0.2-3,0.2-4.5,0.1c-2.3-0.1-3.3-1.1-3.4-3.4c-0.1-2.6-0.1-5.3,0.1-7.9c0.2-2.2,0.2-4.5,0.3-6.7
	c0.3-10.9,0.9-21.9,1.3-32.8c0.6-14,0.9-28.1,0.5-42.2c-0.2-8.1-0.5-16.1-1-24.2c-0.6-11.1-0.9-22.2-1.2-33.3c0-0.4,0-0.8,0-1.2
	c0.1-3.4,1-4.4,4.5-4.3c2.5,0.1,5.1,0.1,7.6,0.5c3.8,0.6,7.5-0.1,11.2-0.4c1.6-0.1,3.2-0.3,4.8-0.1c2.1,0.2,3,1.1,3,3.3
	C606.6,181.6,606.6,183.3,606.6,185.5L606.6,185.5z"/>
</svg>
