<?xml version="1.0" encoding="UTF-8"?>
<svg id="Layer_1" data-name="Layer 1" xmlns="http://www.w3.org/2000/svg" viewBox="0 0 1140.24 351.6">
  <defs>
    <style>
      .cls-1 {
        fill: #fff;
      }
    </style>
  </defs>
  <path class="cls-1" d="m0,268.14c.46-.77.65-1.63.78-2.5,2.78-18.14,12.54-31.25,28.63-39.89,8.92-4.79,18.39-7.69,28.37-9.13,9.33-1.35,18.71-2.29,28.09-3.15,2.29-.21,4.6-.32,6.93,0-.12.85-.79.82-1.26,1.01-13.78,5.72-25.97,13.69-35.88,25-3.76,4.3-7.26,8.74-9.45,14.06-2.74,6.67-4.12,13.52-1.52,20.54,3.84,10.34,10.93,17.1,21.98,19.3,4.5.89,9.02,1.24,13.58.49,3.12-.51,6.02-1.63,8.65-3.37,5.25-3.46,9.91-7.55,13.54-12.75,16.18-23.17,27.42-48.47,33.26-76.16,2.05-9.71,3.57-19.49,4.22-29.39,1.02-15.51-1.01-30.57-6.4-45.23-5.39-14.63-13.6-27.4-24.03-38.91-7-7.73-14.78-14.59-22.51-21.53-.65-.59-1.28-1.2-1.89-1.84-.14-.15-.14-.42-.21-.64.79-.64,1.56-.26,2.31-.11,5.73,1.2,11.26,3.05,16.76,5,7.76,2.75,15.42,5.78,23.29,8.21,6.07,1.87,12.32,2.73,18.55,3.71,6.71,1.06,13.46,1.8,20.22,2.41,15.64,1.39,30.94-.12,45.85-5.28,9.54-3.3,18.9-6.96,27.55-12.25,4.18-2.56,7.99-5.6,11.49-9.01,6.99-6.8,14.46-13.09,21.56-19.77,4.02-3.78,8.06-7.54,12.25-11.12,14.5-12.41,30.82-21.36,49.57-25.59.23-.05.45-.17.67-.26.96,0,1.92,0,2.88,0-.67.86-1.69,1.17-2.61,1.65-7.81,4.07-14.6,9.46-20.55,15.93-2.76,3-5.56,5.97-8.4,8.89-3.18,3.28-6.14,6.73-8.87,10.39-5.44,7.31-11.09,14.47-15.91,22.23-6.86,11.04-11.93,22.81-14.22,35.64-2.61,14.63-.13,28.36,8.13,40.81,6.77,10.21,14.37,19.8,22.56,28.91,2.71,3.02,5.87,5.65,8.9,8.38,2.97,2.68,5.85,5.45,8.67,8.29.23.23.46.45.65.7.38.49,1.04.94.63,1.64-.32.54-1,.4-1.54.4-7.28-.03-14.55.06-21.83-.35-4.23-.24-8.47.23-12.69.53-3.02.22-6.01.82-8.98,1.47-9.73,2.14-18.19,6.86-26.17,12.62-12.07,8.71-21.79,19.53-28.61,32.76-5.61,10.88-9.24,22.44-10.66,34.65-.61,5.28-.69,10.53.36,15.75,2.29,11.39,8.96,19.58,18.82,25.39,5.95,3.5,12.44,5.41,19.22,6.38,4.11.59,8.25.94,12.41.99,11.81.13,22.04-3.83,30.98-11.47,11.71-9.99,20.04-22.28,25.48-36.6,1.99-5.23,3.87-10.5,4.98-16.01.11-.54.27-1.07.72-1.55.93.4.74,1.21.71,1.84-.13,3.91-.19,7.83-.51,11.73-.68,8.21-1.76,16.36-3.68,24.39-2.71,11.36-6.61,22.2-13.43,31.83-3.91,5.52-8.47,10.38-13.77,14.6-6.2,4.95-12.55,9.63-19.87,12.87-5.69,2.52-11.59,4.05-17.78,4.63-1.97.18-4.01.17-5.8,1.27h-11.04c-1-.55-2.11-.7-3.22-.86-9.23-1.28-17.87-4.28-25.78-9.23-4.48-2.81-8.23-6.59-12.37-9.86-6.29-4.98-10.61-11.46-13.86-18.69-2.07-4.61-3.43-9.46-4.41-14.42-2.32-11.67-2.86-23.44-2.02-35.31.56-7.99,1.66-15.88,3.46-23.69,2.37-10.3,6.22-19.96,11.93-28.88,3.63-5.66,7.68-11.01,11.77-16.34,2.16-2.8,4.59-5.34,7.26-7.63,10.22-8.77,21.47-15.85,34.22-20.37,3.16-1.12,6.36-2.16,9.52-3.3,1.35-.49,1.4-.73.44-1.79-2.05-2.25-3.93-4.63-5.74-7.07-5.32-7.15-8.09-15.17-8.32-24.08-.28-10.73,1.02-21.21,5.01-31.26.19-.47.65-.97.13-1.56-1.08,0-1.97.57-2.91,1-4.3,1.94-8.6,3.89-13.03,5.51-9.31,3.39-18.83,5.43-28.83,5.35-8.99-.08-17.84-1.33-26.73-2.29-1.33-.14-2.64-.39-4.02-.11.05,1.02.74,1.53,1.19,2.15,2.11,2.94,3.86,6.06,5.17,9.44,2.94,7.53,4.25,15.39,4.58,23.42.54,13.42-1.18,26.64-3.76,39.76-7.4,37.67-21.7,72.48-43.59,104.08-6.25,9.02-13.22,17.46-21.44,24.8-9.65,8.61-20.38,15.45-32.56,19.87-9.19,3.34-18.63,4.98-28.48,3.85-13-1.5-23.68-7.54-32.67-16.66-7.73-7.85-12.45-17.32-13.88-28.36-.26-2.03-.17-4.18-1.25-6.06v-14.87Z"/>
  <path class="cls-1" d="m1140.24,311.31c-1.34,6.16-2.37,12.38-3.23,18.62-.05.4-.09.8-.17,1.19-.43,2.03-1.2,2.68-3.26,2.84-2.18.16-4.32-.22-6.44-.55-4.43-.7-8.9-.98-13.36-1.24-12.78-.74-25.58-.84-38.36-.45-6.79.2-13.59.14-20.38.44-5.03.22-10.06.35-15.1.37-.8,0-1.61.03-2.39-.09-2.04-.3-3.03-1.3-3.03-3.35,0-6.07-.13-12.15.34-18.21.29-3.74.28-7.5.53-11.25.53-7.81.65-15.65,1.21-23.45.49-6.86.6-13.74.61-20.6.01-8.06.02-16.14-.54-24.2-.05-.72-.08-1.44-.1-2.15-.38-11.02-.71-22.04-1.14-33.05-.2-5.19-.6-10.37-.87-15.55-.16-3.07.76-4.08,3.83-4.14,3.68-.08,7.35.26,11.02.3,15.91.21,31.81.97,47.72.54,9.99-.27,19.97-.58,29.96-.86,1.36-.04,2.71.05,4.05.33,1.95.4,3.13,1.44,3.47,3.44.91,5.36,1.74,10.72,2.3,16.13.05.48.05.96.03,1.44-.09,2.01-.7,2.69-2.69,3-.47.07-.96.13-1.43.12-8.63-.29-17.26-.4-25.87-.92-10.3-.62-20.6-.97-30.91-.94-2.39,0-4.79,0-7.15.61-2.33.59-3.78,1.95-4.39,4.25-.58,2.17-.91,4.39-.92,6.63-.03,8.07-.02,16.15-.02,24.22,0,.88.03,1.75.28,2.61.51,1.82,1.74,2.83,3.51,3.21.62.13,1.27.15,1.91.13,8.07-.27,16.15.19,24.22-.33,3.35-.22,6.71-.15,10.07-.16,7.76-.03,15.49-.6,23.23-1.05,1.43-.08,2.86-.37,4.29-.41,2.58-.08,3.48.87,3.28,3.48-.23,3.03-.54,6.05-.88,9.06-.38,3.33-.68,6.67-.81,10.03-.11,3-.91,3.86-3.94,3.72-3.91-.18-7.81-.52-11.72-.8-1.11-.08-2.23-.24-3.34-.26-14.31-.26-28.63-.27-42.94-.01-1.12.02-2.23.06-3.33.34-2.7.69-3.92,2.14-3.93,4.94,0,4.16.06,8.31.07,12.47.02,4.56-.04,9.11.04,13.67.05,3.04.41,6.05,1.34,8.98.77,2.45,2.32,3.9,4.86,4.41,3.07.61,6.18.86,9.29.92,4.8.09,9.6.19,14.39-.02,6.62-.29,13.24-.6,19.85-1.19,5.17-.46,10.35-.81,15.54-1.12,2.71-.16,5.4-.58,8.13-.56,1.64.01,2.81.41,3.25,2.11v2.4Z"/>
  <path class="cls-1" d="m803.02,176.45c13.98-.13,28.85.43,43.72.5,8.43.04,16.71,1.57,24.57,4.81,7.31,3.01,13.68,7.29,18.18,13.96,3.95,5.86,5.75,12.38,6.18,19.39.68,11.13-3.82,20.17-10.98,28.21-1.28,1.44-2.86,2.55-4.48,3.59-.54.35-1.07.71-1.56,1.12-1.43,1.2-1.41,1.69.08,2.7.33.22.69.4,1.04.6,11.74,6.81,18.3,17.04,19.19,30.51,1.05,15.9-4.23,29.56-16.06,40.43-6.79,6.24-14.92,9.46-24.14,9.82-10.55.42-21.1.04-31.65-.24-6.72-.18-13.43-.35-20.14-.2-7.03.15-14.05.56-21.08.84-1.2.05-2.4.06-3.6.01-2.38-.1-3.43-1.04-3.46-3.36-.04-3.68-.01-7.36.15-11.03.09-1.91.18-3.83.26-5.74.43-10.38.96-20.75,1.33-31.13.43-12.22.9-24.44.51-36.67-.27-8.54-.54-17.09-.97-25.63-.6-12.13-1.08-24.26-1.31-36.4-.02-.96-.04-1.92.01-2.88.12-2.02.9-2.87,2.92-3.14.79-.1,1.6-.08,2.4-.08,6,0,12,0,18.89,0Zm4.27,104.96c-.28,7.12.45,15.66.48,24.21,0,2.06.26,2.26,2.26,2.69,2.51.55,5.08.83,7.61.86,9.75.08,19.51.64,29.24-.39,3.83-.4,7.58-1.15,11.14-2.71,4.85-2.13,8.25-5.62,10.19-10.58,2.11-5.38,2.26-10.96,1.62-16.54-.6-5.2-3.3-9.28-7.93-11.94-1.95-1.12-3.99-2.02-6.16-2.62-4.41-1.23-8.92-1.78-13.49-1.92-7.84-.24-15.68-.13-23.51.1-2.95.09-5.9.36-8.8.99-2.3.5-2.63.9-2.64,3.22-.02,4.4,0,8.79,0,14.63Zm18.82-84.59c-2.24,0-4.48-.09-6.71.02-3.03.15-6.06.32-9.03,1-2.1.48-2.57,1.03-2.58,3.09-.02,4.15-.29,8.29-.41,12.44-.18,6.54-.06,13.09-.05,19.64,0,.88.13,1.75.15,2.63.04,1.73,1,2.62,2.6,2.93,1.25.24,2.51.44,3.77.67,3.4.61,6.85.39,10.27.66,8.24.63,16.44.24,24.56-1.24,4.74-.87,9.28-2.42,13.1-5.54,3.04-2.49,4.85-5.7,5.29-9.61.27-2.38.27-4.8-.07-7.17-.72-5.09-2.88-9.43-7-12.67-3.27-2.58-7.04-4.06-11.06-4.94-7.53-1.64-15.18-1.99-22.85-1.9Z"/>
  <path class="cls-1" d="m760.71,332.53c-3.59-.12-7.17-.51-10.77-.52-3.45,0-6.86.42-10.29.56-2.33.09-3.78-.82-4.81-2.79-1.15-2.21-2.06-4.51-2.81-6.87-1.09-3.43-2.13-6.87-3.16-10.31-.97-3.22-2.17-6.35-3.73-9.34-1.65-3.16-3.94-4.84-7.79-4.81-17.59.14-35.19.13-52.78,0-3.49-.03-5.5,1.41-6.94,4.37-2.26,4.62-3.81,9.48-5.28,14.39-1.03,3.45-2.1,6.88-3.47,10.21-.27.66-.61,1.3-.9,1.96-1.01,2.28-2.58,3.3-5.25,3.23-6.95-.19-13.91-.06-20.87-.06-.56,0-1.12.02-1.68-.03-2.02-.19-2.7-1.04-2.29-3.02.29-1.4.7-2.8,1.2-4.14,10.3-27.29,20.47-54.63,30.98-81.84,5.7-14.76,11.87-29.34,18.02-43.92,2.92-6.92,5.78-13.87,8.42-20.9.31-.82.64-1.64,1.01-2.44.74-1.61,1.93-2.47,3.8-2.27,2.3.24,4.64.27,6.92.64,3.62.6,7.17.16,10.74-.29,1.11-.14,2.23-.25,3.31-.53,1.94-.5,3.22.18,4.14,1.91.97,1.84,1.79,3.75,2.55,5.68,7.7,19.47,14.96,39.11,22.42,58.68,8.01,20.98,15.99,41.97,23.95,62.97,3.23,8.52,6.42,17.05,9.58,25.6,1.25,3.38.87,3.86-2.79,3.89-.48,0-.96,0-1.44,0Zm-69.18-122.84c-.82.77-.96,1.5-1.22,2.16-4.97,12.81-9.97,25.61-14.88,38.44-2.23,5.82-4.5,11.62-6.31,17.59-.8,2.64-.18,3.83,2.4,4.81,1.96.74,4.02,1.07,6.11,1.08,8.79.01,17.58.04,26.38-.03,2.47-.02,4.95-.37,7.3-1.21,2.63-.94,3.07-1.93,2.09-4.54-5.61-15.04-11.21-30.09-16.84-45.13-1.62-4.33-3.29-8.63-5.03-13.17Z"/>
  <path class="cls-1" d="m364.72,221.95c0,4.4-.04,8.79.01,13.19.04,4.13,1.53,5.62,5.72,5.57,11.35-.12,22.7-.37,34.05-.47,7.84-.07,15.65-.61,23.46-1.06,1.51-.09,3-.48,4.53-.43,2.02.07,2.72.73,2.85,2.74.16,2.49-.24,4.95-.54,7.4-.52,4.21-.91,8.41-1.01,12.65-.06,2.79-.85,3.49-3.7,3.49-4.16,0-8.29-.52-12.43-.82-1.04-.07-2.07-.21-3.1-.23-14.15-.25-28.3-.26-42.46-.02-1.28.02-2.55.08-3.81.39-2.49.61-3.87,2.17-3.88,4.75,0,2.47.26,4.95.28,7.42.05,6.31.03,12.63.03,18.94,0,2.73.28,5.41.97,8.06.79,3,2.47,4.89,5.69,5.35,2.85.41,5.7.77,8.58.81,4.88.06,9.76.17,14.63-.02,6.54-.26,13.07-.77,19.61-1.21,5.18-.35,10.35-.78,15.54-1.09,2.79-.17,5.56-.65,8.37-.54,2.56.1,3.41.95,3.24,3.56-.07,1.11-.15,2.25-.45,3.32-1.42,5.18-1.95,10.52-2.77,15.8-.63,4.08-1.32,4.7-5.5,4.4-3.1-.22-6.19-.71-9.28-1.03-2.86-.29-5.72-.61-8.59-.76-12.78-.67-25.58-.79-38.36-.42-6.79.2-13.59.13-20.37.45-4.95.23-9.9.33-14.86.37-.72,0-1.44.03-2.16-.04-2.42-.21-3.54-1.24-3.57-3.63-.04-3.75.09-7.51.17-11.26.02-1.04.17-2.07.19-3.11.21-9.19.77-18.35,1.38-27.52.22-3.35.32-6.7.48-10.05.57-11.49.82-23,.51-34.51-.26-9.34-.55-18.68-.98-28.02-.35-7.66-.69-15.32-.93-22.98-.12-3.67-.41-7.33-.7-10.99-.2-2.52.73-3.81,3.31-3.9,3.03-.11,6.08-.11,9.11.15.72.06,1.43.15,2.15.16,16.23.14,32.45,1.04,48.68.46,9.82-.35,19.65-.4,29.48-.81,1.36-.06,2.71.02,4.05.35,1.81.45,2.98,1.46,3.3,3.35.97,5.75,2.02,11.49,2.33,17.33.12,2.31-.68,3.25-3.04,3.36-1.99.09-3.99-.18-5.98-.16-10.16.1-20.28-.74-30.42-1.19-8.31-.37-16.62-.56-24.93-.33-6.2.17-8.23,2.21-8.74,8.39-.04.48-.07.96-.07,1.44,0,4.32,0,8.63,0,12.95-.02,0-.03,0-.05,0Z"/>
  <path class="cls-1" d="m498.85,309.23c9.51-.33,19.03-.24,28.53-.55,7.66-.25,15.33-.62,22.96-1.41,2.38-.25,4.73-.77,7.1-1.13.87-.13,1.75-.24,2.62-.24,2.13.02,2.93.72,2.94,2.88.03,3.52.05,7.04-.18,10.54-.21,3.34-.41,6.7-1.21,9.98-.86,3.53-2.06,4.62-5.69,4.46-8.14-.36-16.28-.57-24.42-1.07-8.53-.53-17.08-.92-25.64-.79-6.24.1-12.48-.06-18.71.26-7.67.4-15.35.26-23.02.36-.56,0-1.12.01-1.68,0-2.6-.1-3.68-1.04-3.69-3.66-.02-5.43-.16-10.87.23-16.3.08-1.11.12-2.24.11-3.35-.06-12.39.91-24.75,1.07-37.13.05-4.15.28-8.31.28-12.46-.01-8.62-.16-17.25-.65-25.87-.24-4.23-.17-8.46-.48-12.69-.35-4.78-.43-9.58-.58-14.37-.26-8.46-.69-16.93-.61-25.4.04-3.96.48-4.45,4.39-4.44,2.32,0,4.62.13,6.94.38,3.02.32,6.06.31,9.09-.13,2.46-.36,4.95-.29,7.42-.22,2.07.06,2.89.86,2.99,2.96.1,1.99.15,4.01-.01,5.99-.31,3.67-.22,7.35-.31,11.02-.27,11.18-.82,22.35-1.15,33.53-.2,6.87-.36,13.74-.37,20.61-.01,15.83.03,31.65.13,47.48.02,2.71.31,5.42.65,8.11.32,2.5.59,2.64,3.04,2.65,2.64.02,5.28,0,7.92,0Z"/>
  <path class="cls-1" d="m932.67,332.53c-3.52,0-7.04.03-10.56-.01-2.9-.04-3.83-.96-4.01-3.89-.17-2.72.2-5.43.24-8.14.09-5.52.03-11.03.2-16.55.35-11.26.91-22.51,1.18-33.77.21-8.87.4-17.74-.16-26.61-.06-.88-.05-1.76-.09-2.64-.38-10.86-.69-21.72-1.16-32.58-.38-8.86-.83-17.72-.85-26.59,0-.72-.03-1.44.03-2.16.16-1.82.9-2.62,2.72-2.7,2.48-.11,4.96-.15,7.43.17,3.51.45,7.01.46,10.52,0,2.38-.31,4.79-.25,7.19-.19,2.12.06,2.95.83,2.96,2.92.03,5.03.1,10.07-.2,15.1-.04.72-.13,1.43-.15,2.15-.23,7.67-.3,15.34-.69,23-1.25,24.84-.78,49.7-.76,74.56,0,4.07.21,8.15.85,12.18.37,2.33.52,2.4,2.96,2.44,10.64.2,21.26-.38,31.9-.47,9.27-.08,18.52-.71,27.76-1.51,2.22-.19,4.42-.67,6.62-1.08,1.11-.21,2.22-.33,3.34-.26,1.66.1,2.36.7,2.38,2.38.05,4.71.16,9.43-.3,14.14-.22,2.31-.44,4.62-.98,6.88-.84,3.53-1.89,4.59-5.44,4.44-4.72-.2-9.45.02-14.14-.42-3.58-.34-7.18-.44-10.76-.66-14.77-.91-29.57-.9-44.36-.48-4.55.13-9.11.25-13.66.35Z"/>
  <path class="cls-1" d="m606.59,185.51c-.33,10.88-.58,22.22-1.05,33.56-.15,3.59-.18,7.19-.34,10.78-.56,12.38-.66,24.76-.38,37.15.25,10.86.56,21.72,1.04,32.58.19,4.31.3,8.62.37,12.93.08,4.87.52,9.74.37,14.61-.02.64.02,1.28-.01,1.92-.11,2.44-.95,3.37-3.34,3.46-1.83.07-3.69.09-5.51-.12-4.79-.56-9.56-.55-14.35.02-1.5.18-3.04.16-4.55.1-2.34-.1-3.35-1.08-3.42-3.43-.08-2.63-.1-5.28.08-7.91.15-2.24.2-4.47.27-6.7.31-10.94.86-21.87,1.33-32.8.61-14.05.94-28.11.51-42.18-.24-8.06-.55-16.13-.99-24.18-.61-11.09-.91-22.19-1.24-33.28-.01-.4,0-.8,0-1.2.06-3.43,1-4.39,4.51-4.32,2.55.05,5.14.09,7.64.51,3.79.64,7.49-.1,11.22-.36,1.6-.11,3.19-.27,4.79-.11,2.13.21,2.96,1.1,3.03,3.26.06,1.76.01,3.52.01,5.73Z"/>
</svg>