<?xml version="1.0" encoding="utf-8"?>
<!-- Generator: Adobe Illustrator 27.5.0, SVG Export Plug-In . SVG Version: 6.00 Build 0)  -->
<svg version="1.1" id="Layer_1" xmlns="http://www.w3.org/2000/svg" xmlns:xlink="http://www.w3.org/1999/xlink" x="0px" y="0px"
	 viewBox="0 0 60 6" style="enable-background:new 0 0 60 6;" xml:space="preserve">
<style type="text/css">
	.st0{fill:#FFFFFF;}
</style>
<rect class="st0" width="25.6" height="1.5"/>
<rect id="Rectangle_1_copy_2" x="34.4" class="st0" width="25.6" height="1.5"/>
<rect id="Rectangle_1_copy" x="27" class="st0" width="6" height="1.5"/>
<path id="Rectangle_1_copy_3" class="st0" d="M14,4.5h24.6c0.3,0,0.5,0.2,0.5,0.5v0.5c0,0.3-0.2,0.5-0.5,0.5H14
	c-0.3,0-0.5-0.2-0.5-0.5V5C13.5,4.7,13.7,4.5,14,4.5z"/>
<path id="Rectangle_1_copy_3-2" class="st0" d="M41,4.5h5c0.3,0,0.5,0.2,0.5,0.5v0.5C46.5,5.8,46.3,6,46,6h-5
	c-0.3,0-0.5-0.2-0.5-0.5V5C40.5,4.7,40.7,4.5,41,4.5z"/>
</svg>
